<?xml version="1.0" encoding="utf-8"?>
<!-- Generator: Adobe Illustrator 22.1.0, SVG Export Plug-In . SVG Version: 6.00 Build 0)  -->
<svg version="1.1" id="Layer_1" xmlns="http://www.w3.org/2000/svg" xmlns:xlink="http://www.w3.org/1999/xlink" x="0px" y="0px"
	 width="2000.5px" height="107.7px" viewBox="0 0 2000.5 107.7" style="enable-background:new 0 0 2000.5 107.7;"
	 xml:space="preserve">
<style type="text/css">
	.st0{fill:#E40000;}
</style>
<path class="st0" d="M1708.4,29.3c-28.7,4.3-55.2,9.4-79.1,14.6c-42.9,6.9-89.1,12.2-141.9,13.1c-139.2,2.4-271.3-30.1-479.7-45
	c-56.3-6-112.9-8.9-169.2-7.7c-3.4,0.1-6.9,0.2-10.3,0.2C507.1-2.9,329.5,0.8,0.5,1.4v17.5c-0.2,0-0.3,0-0.5,0l0.5,88.8h0.9h1h1998
	h0.1V30V7.3C1883.1-6.1,1798.5,11.5,1708.4,29.3z"/>
</svg>
