<?xml version="1.0" encoding="utf-8"?>
<!-- Generator: Adobe Illustrator 22.1.0, SVG Export Plug-In . SVG Version: 6.00 Build 0)  -->
<svg version="1.1" id="Layer_1" xmlns="http://www.w3.org/2000/svg" xmlns:xlink="http://www.w3.org/1999/xlink" x="0px" y="0px"
	 width="2000.5px" height="107.7px" viewBox="0 0 2000.5 107.7" style="enable-background:new 0 0 2000.5 107.7;"
	 xml:space="preserve">
<style type="text/css">
	.st0{fill:#1A1A1A;}
</style>
<path class="st0" d="M2000,18.9V1.4c-329-0.6-506.6-4.3-827.7,3.1c-3.4-0.1-6.9-0.2-10.3-0.2C1105.7,3.1,1049.2,6,992.8,12
	C784.4,26.9,652.3,59.4,513.1,57c-52.8-0.9-99-6.2-141.9-13.1c-23.9-5.2-50.4-10.3-79.1-14.6C202,11.5,117.4-6.1,0,7.3V30v77.7h0.1
	h1998h1h0.9l0.5-88.8C2000.3,18.9,2000.2,18.9,2000,18.9z"/>
</svg>
