<?xml version="1.0" encoding="utf-8"?>
<!-- Generator: Adobe Illustrator 22.0.1, SVG Export Plug-In . SVG Version: 6.00 Build 0)  -->
<svg version="1.1" id="Layer_1" xmlns="http://www.w3.org/2000/svg" xmlns:xlink="http://www.w3.org/1999/xlink" x="0px" y="0px"
	 viewBox="0 0 1237.1 290.6" style="enable-background:new 0 0 1237.1 290.6;" xml:space="preserve">
<style type="text/css">
	.st0{fill:#FFFFFF;}
	.st1{fill:#004F75;}
	.st2{fill:#A52960;}
	.st3{fill:#EF412C;}
	.st4{fill:#12C3F4;}
	.st5{fill:#8FB73E;}
	.st6{fill:#FFC20E;}
</style>
<title>partner</title>
<path class="st0" d="M872.7,290.6h3.2c0.8,0,1.5-0.7,1.5-1.5V52.4c0-0.8-0.7-1.5-1.5-1.5h-3.2c-0.8,0-1.5,0.7-1.5,1.5v236.7
	C871.3,289.9,872,290.6,872.7,290.6z"/>
<g>
	<g>
		<g>
			<path class="st1" d="M1103.8,162.4c-1.3-1.3-5.5-4.3-16.5-6.9c-3.2,4.4-12.8,10.3-26,18.4c-11,6.7-33.9,17.9-33.9,17.9
				s-27.8,13.4-36.9,21.4c-18.6,16.3-13.3,31.4-9.9,31.4c3.2,0,8.6-10,24.2-21.9c22.3-17,48.4-31.7,79.1-43.5
				c6.3-2.4,20.4-6.6,23.8-7.6c-0.1-3.4-1.5-6.8-3.8-9L1103.8,162.4z"/>
			<path class="st1" d="M1197,51.2c2.2-5.7,2.9-8.2-0.6-9.7c-2.9-1.3-8-2.7-8.7-1.8C1186.7,41,1195.4,50.1,1197,51.2z"/>
			<path class="st2" d="M1169.4,130.3c-0.2-11-5.4-21-13.7-27.5c-0.9-0.7-1.9-1.4-2.9-2.1c-5.2-3.3-11.3-5.4-18-5.6
				c-19.7-0.7-36.7,15-37.1,35c-0.3,15.5,7.9,23.6,11.3,27.1c0.1,0.1,0.2,0.3,0.3,0.3c7.6,7.7,10.2,24.5-6.2,34.4
				c20.8-11.9,48.4-24.7,63.1-41.9c0,0,0-0.1,0-0.1C1166.9,148.3,1169.7,139.3,1169.4,130.3z"/>
			<path class="st3" d="M1086.8,104.6c-12.3,7.8-37.8,19.3-71.7,10.1c-40.9-11.1-66.2-57.4-68-60.5c-3.1-5.1-6.1-3.9-4.3,1.8
				c1.8,5.7,11.4,32,31.9,51.4c20.2,19.1,47.9,33.5,87.8,37.3c33.8,2.3,43.6,9.7,46.5,12.5c-3.5-3.4-11.6-11.6-11.3-27.1
				c0.4-20,17.4-35.7,37.1-35c6.7,0.3,12.9,2.3,18,5.6c0,0-0.1-0.1-0.1-0.1C1140.1,91.8,1111.5,89.4,1086.8,104.6z"/>
			<path class="st4" d="M1103.2,191.9c-5.3,3-33.7,20.7-34.8,21.4c0,0,0,0,0,0c-21.6,12.8-40.9,21.8-64.6,45.5
				c-13.3,13.3-10.8,31.8-7.2,31.8c3.5,0,11.6-11.4,26.4-25.4c33.5-31.6,85.7-56.4,108.2-72.1c14.3-9.8,28.2-24,35.1-43.2
				C1151.6,167.1,1124,180,1103.2,191.9z"/>
			<path class="st3" d="M1235.3,41.9c-3.1-1.1-15.4-2.7-24.3-3.6c-3.5-3.1-11.5-8.6-13.1-7.6c-1.7,1,5.5,11.3,6.4,13.4
				c-0.3,1.6-1.3,7.5-5.1,13.9c-13.8,23.8-38.4,22-41,22.1c9.6,0.2,36.4,0.9,55.3-14.6c1.5-1.3,2.9-2.6,4.4-4
				c1.4-1.4,6.2-6.7,15.3-8.8C1237.3,51.2,1238.4,43,1235.3,41.9z"/>
			<path class="st5" d="M1197,106.1C1197,106.1,1197,106.1,1197,106.1c0.8,4.3,4.1,18.9,2.6,25.9c-1.8,8.5,6.5,5,8.1-6.4
				c1.1-8,1.2-28.4,1.2-28.4c0.1-12.6,1.4-19,3.1-24.7C1208.5,81,1203.7,93.1,1197,106.1z"/>
			<path class="st6" d="M1085.5,95.3c9.1-6.3,22.9-15.7,42.3-20.6c2.1-0.5,4.4-1,6.6-1.4c2.1-5.8,3.2-12.1,3.2-18.6
				c0-30.3-24.5-54.8-54.8-54.8c-30.2,0-54.8,24.5-54.8,54.8c0,23.5,14.8,43.5,35.6,51.3c7.6-2.4,13.9-5.6,18.5-8.6
				C1083.3,96.8,1084.4,96.1,1085.5,95.3z"/>
		</g>
	</g>
	<path class="st6" d="M1213.5,65.4c-18.9,15.5-45.7,14.8-55.3,14.6c-3.7-0.1-17.2,0.1-28.3,2.8c-20.4,5.1-34.1,15.7-43,21.7
		c24.6-15.2,53.2-12.7,65.9-4c0,0,0.1,0.1,0.1,0.1c1,0.6,2,1.3,2.9,2.1c8.2,6.5,13.4,16.6,13.7,27.5c0.2,9-2.6,18-3.1,19.5
		c0,0,0,0.1,0,0.1c13.2-13.2,23.1-29.1,30.7-43.8c6.7-13,11.5-25.1,15.1-33.6c2.4-5.6,4.2-9.6,5.7-11.2
		C1216.4,62.8,1214.9,64.1,1213.5,65.4z"/>
</g>
<g>
	<path class="st0" d="M563.4,99.7H524c-0.9,0-1.5,0.7-1.5,1.5v4.4c0,0.8,0.6,1.5,1.5,1.5h15.6v46c0,0.8,0.7,1.5,1.5,1.5h5.2
		c0.8,0,1.5-0.7,1.5-1.5v-46h15.6c0.9,0,1.5-0.7,1.5-1.5v-4.4C564.8,100.4,564.2,99.7,563.4,99.7z"/>
	<path class="st0" d="M40.9,99.7H1.5c-0.9,0-1.5,0.7-1.5,1.5v4.4c0,0.8,0.6,1.5,1.5,1.5h15.6v46c0,0.8,0.7,1.5,1.5,1.5h5.2
		c0.8,0,1.5-0.7,1.5-1.5v-46h15.6c0.9,0,1.5-0.7,1.5-1.5v-4.4C42.3,100.4,41.7,99.7,40.9,99.7z"/>
	<path class="st0" d="M149.1,234.5h-23.3v-46c0-0.8-0.7-1.5-1.5-1.5h-5.2c-0.9,0-1.5,0.7-1.5,1.5v51.8c0,0.8,0.6,1.5,1.5,1.5h30
		c0.9,0,1.5-0.7,1.5-1.5V236C150.6,235.2,150,234.5,149.1,234.5z"/>
	<path class="st0" d="M174.2,187H169c-0.8,0-1.5,0.7-1.5,1.5v51.8c0,0.8,0.7,1.5,1.5,1.5h5.2c0.8,0,1.5-0.7,1.5-1.5v-51.8
		C175.6,187.7,174.9,187,174.2,187z"/>
	<path class="st0" d="M60.2,101.2c0-0.8,0.7-1.5,1.5-1.5h5.2c0.9,0,1.5,0.7,1.5,1.5v21.8H97v-21.8c0-0.8,0.6-1.5,1.5-1.5h5.2
		c0.8,0,1.5,0.7,1.5,1.5v51.8c0,0.8-0.7,1.5-1.5,1.5h-5.2c-0.9,0-1.5-0.7-1.5-1.5v-22.6H68.3v22.6c0,0.8-0.6,1.5-1.5,1.5h-5.2
		c-0.8,0-1.5-0.7-1.5-1.5V101.2z"/>
	<path class="st0" d="M125.2,101.2c0-0.8,0.6-1.5,1.5-1.5H158c0.9,0,1.5,0.7,1.5,1.5v4.4c0,0.8-0.6,1.5-1.5,1.5h-24.7v16h20.9
		c0.8,0,1.5,0.7,1.5,1.5v4.4c0,0.9-0.7,1.5-1.5,1.5h-20.9v16.8H158c0.9,0,1.5,0.7,1.5,1.5v4.3c0,0.8-0.6,1.5-1.5,1.5h-31.3
		c-0.9,0-1.5-0.7-1.5-1.5V101.2z"/>
	<path class="st0" d="M179.2,101.2c0-0.8,0.6-1.5,1.5-1.5H202c9.4,0,17.1,7.4,17.1,16.8c0,7.2-4.8,13.2-11.6,15.9l10.7,19.9
		c0.5,1,0,2.3-1.3,2.3h-6.1c-0.6,0-1.1-0.4-1.3-0.7l-10.4-20.7h-11.8v20c0,0.8-0.7,1.5-1.5,1.5h-5.1c-0.9,0-1.5-0.7-1.5-1.5V101.2z
		 M201.4,126.4c5.1,0,9.6-4.3,9.6-9.7c0-5.1-4.5-9.3-9.6-9.3h-13.9v19H201.4z"/>
	<path class="st0" d="M237.7,101.2c0-0.8,0.6-1.5,1.5-1.5h31.3c0.9,0,1.5,0.7,1.5,1.5v4.4c0,0.8-0.6,1.5-1.5,1.5h-24.7v16h20.9
		c0.8,0,1.5,0.7,1.5,1.5v4.4c0,0.9-0.7,1.5-1.5,1.5h-20.9v16.8h24.7c0.9,0,1.5,0.7,1.5,1.5v4.3c0,0.8-0.6,1.5-1.5,1.5h-31.3
		c-0.9,0-1.5-0.7-1.5-1.5V101.2z"/>
	<path class="st0" d="M290.1,114.9c-0.5-0.5-0.3-1.3,0.3-1.9c0.8-0.6,2.7-2.5,2.7-4.6c0,0.2-0.9,0.2-1.6,0.2c-2.7,0-4.9-2.1-4.9-4.8
		c0-2.7,2.2-4.9,5-4.9c2.7,0,5.9,1.6,5.9,7.7c0,3.7-2.2,7.2-4.4,9.3c-0.7,0.6-1.3,0.6-1.9,0.1L290.1,114.9z"/>
	<path class="st0" d="M310.1,146.6c0.7-1,1.3-2.2,2-3.2c0.7-1,1.8-1.3,2.7-0.6c0.5,0.4,6.5,5.4,12.5,5.4c5.4,0,8.8-3.3,8.8-7.3
		c0-4.7-4.1-7.7-11.8-10.9c-8-3.4-14.2-7.5-14.2-16.6c0-6.1,4.7-14.5,17.1-14.5c7.8,0,13.7,4.1,14.5,4.6c0.6,0.4,1.3,1.5,0.5,2.7
		c-0.6,0.9-1.3,2-2,3c-0.6,1-1.6,1.5-2.7,0.8c-0.5-0.3-6-3.9-10.6-3.9c-6.6,0-8.8,4.1-8.8,7c0,4.5,3.4,7.2,9.9,9.9
		c9.1,3.7,16.8,8,16.8,17.5c0,8.1-7.3,14.8-17.5,14.8c-9.5,0-15.6-5-16.8-6.2C309.8,148.5,309.3,148,310.1,146.6z"/>
	<path class="st0" d="M391.6,100.4c0-0.8,0.7-1.4,1.5-1.4h2l34,39.3h0.1v-37c0-0.8,0.6-1.5,1.5-1.5h5c0.8,0,1.5,0.7,1.5,1.5v52.7
		c0,0.8-0.7,1.4-1.5,1.4h-2l-34-40.4h-0.1v38.1c0,0.8-0.6,1.5-1.5,1.5h-4.9c-0.8,0-1.5-0.7-1.5-1.5V100.4z"/>
	<path class="st0" d="M482.8,99c15.7,0,28.2,12.6,28.2,28.3c0,15.7-12.5,28.1-28.2,28.1c-15.7,0-28.1-12.4-28.1-28.1
		C454.7,111.6,467.2,99,482.8,99z M482.8,147.5c11.2,0,20.4-9.1,20.4-20.3c0-11.1-9.2-20.4-20.4-20.4c-11.1,0-20.3,9.3-20.3,20.4
		C462.5,138.4,471.7,147.5,482.8,147.5z"/>
	<path class="st0" d="M582.7,101.2c0-0.8,0.7-1.5,1.5-1.5h5.2c0.9,0,1.5,0.7,1.5,1.5v21.8h28.7v-21.8c0-0.8,0.6-1.5,1.5-1.5h5.2
		c0.8,0,1.5,0.7,1.5,1.5v51.8c0,0.8-0.7,1.5-1.5,1.5H621c-0.9,0-1.5-0.7-1.5-1.5v-22.6h-28.7v22.6c0,0.8-0.6,1.5-1.5,1.5h-5.2
		c-0.8,0-1.5-0.7-1.5-1.5V101.2z"/>
	<path class="st0" d="M650.7,101.2c0-0.8,0.7-1.5,1.5-1.5h5.2c0.8,0,1.5,0.7,1.5,1.5v51.8c0,0.8-0.7,1.5-1.5,1.5h-5.2
		c-0.8,0-1.5-0.7-1.5-1.5V101.2z"/>
	<path class="st0" d="M681.9,100.4c0-0.8,0.7-1.4,1.5-1.4h2l34,39.3h0.1v-37c0-0.8,0.6-1.5,1.5-1.5h5c0.8,0,1.5,0.7,1.5,1.5v52.7
		c0,0.8-0.7,1.4-1.5,1.4h-2l-34-40.4h-0.1v38.1c0,0.8-0.6,1.5-1.5,1.5h-4.9c-0.8,0-1.5-0.7-1.5-1.5V100.4z"/>
	<path class="st0" d="M774.7,99c7.5,0,13.7,2.7,19,7.3c0.6,0.6,0.7,1.6,0.1,2.2c-1.2,1.3-2.3,2.4-3.5,3.7c-0.6,0.7-1.3,0.6-2-0.1
		c-3.7-3.2-8.5-5.3-13.3-5.3c-11.1,0-19.6,9.4-19.6,20.4c0,10.9,8.5,20.3,19.6,20.3c6.5,0,11-2.4,11.7-2.7v-8.8H779
		c-0.9,0-1.5-0.6-1.5-1.4V130c0-0.9,0.6-1.5,1.5-1.5h14.2c0.8,0,1.4,0.7,1.4,1.5c0,6.3,0.1,12.7,0.1,18.9c0,0.4-0.3,1-0.6,1.3
		c0,0-8.1,5.2-19.4,5.2c-15.6,0-28.2-12.4-28.2-28.1C746.5,111.6,759.1,99,774.7,99z"/>
	<g>
		<path class="st0" d="M195.8,188.8c0-1,0.8-1.9,1.9-1.9h4.5c1,0,1.9,0.9,1.9,1.9v21.7l22.1-22.8c0.3-0.4,0.9-0.8,1.5-0.8h5.9
			c1.4,0,2.2,1.6,1.1,2.8l-22.6,23l24,26.4c0.6,0.8,0.2,2.6-1.4,2.6h-6.3c-0.8,0-1.3-0.3-1.4-0.5l-22.8-25.7v24.3
			c0,1-0.9,1.9-1.9,1.9h-4.5c-1.1,0-1.9-0.9-1.9-1.9V188.8z"/>
		<path class="st0" d="M251.6,188.5c0-0.8,0.6-1.5,1.5-1.5h31.3c0.9,0,1.5,0.7,1.5,1.5v4.4c0,0.8-0.6,1.5-1.5,1.5h-24.7v16h20.9
			c0.8,0,1.5,0.7,1.5,1.5v4.4c0,0.9-0.7,1.5-1.5,1.5h-20.9v16.8h24.7c0.9,0,1.5,0.7,1.5,1.5v4.3c0,0.8-0.6,1.5-1.5,1.5h-31.3
			c-0.9,0-1.5-0.7-1.5-1.5V188.5z"/>
	</g>
	<g>
		<path class="st0" d="M353.6,187c-0.2-0.5-0.9-0.9-1.3-0.9h-0.8c-0.4,0-1.1,0.4-1.3,0.9l-24,52.7c-0.5,1,0.2,2,1.3,2h4.9
			c0.9,0,1.6-0.6,1.8-1.2c1.6-3.6,3.2-7.1,4.8-10.7h25.6l4.9,10.7c0.3,0.7,0.9,1.2,1.8,1.2h4.9c1.2,0,1.8-1,1.3-2L353.6,187z
			 M342,223.1l9.6-21.4h0.4l9.6,21.4H342z"/>
		<path class="st0" d="M431.1,187h-5.2c-0.9,0-1.5,0.7-1.5,1.5v32.5c0,7.8-5.1,13.8-13.2,13.8c-8,0-13-6.1-13-13.9v-32.3
			c0-0.8-0.6-1.5-1.5-1.5h-5.2c-0.8,0-1.5,0.7-1.5,1.5v32.9c0,11.9,8.9,21.2,21.2,21.2c12.4,0,21.4-9.3,21.4-21.2v-32.9
			C432.6,187.7,431.9,187,431.1,187z"/>
		<path class="st0" d="M466.8,210.2c-6.5-2.7-9.9-5.4-9.9-9.9c0-2.9,2.3-7,8.8-7c4.5,0,10,3.6,10.6,3.9c1.1,0.7,2.1,0.2,2.7-0.8
			c0.6-0.9,1.3-2,2-3c0.8-1.2,0.2-2.3-0.5-2.7c-0.8-0.5-6.7-4.6-14.5-4.6c-12.5,0-17.1,8.4-17.1,14.5c0,9.1,6.3,13.2,14.2,16.6
			c7.8,3.2,11.8,6.2,11.8,10.9c0,4-3.4,7.3-8.8,7.3c-6,0-12.1-5-12.5-5.4c-0.9-0.7-2-0.4-2.7,0.6c-0.7,1-1.3,2.2-2,3.2
			c-0.8,1.3-0.2,1.9,0.5,2.5c1.3,1.2,7.3,6.2,16.8,6.2c10.2,0,17.5-6.6,17.5-14.8C483.6,218.2,475.8,213.9,466.8,210.2z"/>
		<path class="st0" d="M537.7,187h-39.4c-0.9,0-1.5,0.7-1.5,1.5v4.4c0,0.8,0.6,1.5,1.5,1.5H514v46c0,0.8,0.7,1.5,1.5,1.5h5.2
			c0.8,0,1.5-0.7,1.5-1.5v-46h15.6c0.9,0,1.5-0.7,1.5-1.5v-4.4C539.2,187.7,538.6,187,537.7,187z"/>
		<path class="st0" d="M594.9,203.7c0-9.3-7.7-16.8-17.1-16.8h-21.3c-0.9,0-1.5,0.7-1.5,1.5v51.8c0,0.8,0.6,1.5,1.5,1.5h5.1
			c0.8,0,1.5-0.7,1.5-1.5v-20h11.8l10.4,20.7c0.2,0.3,0.6,0.7,1.2,0.7h6.1c1.3,0,1.9-1.3,1.3-2.3l-10.7-19.9
			C590.1,216.9,594.9,210.9,594.9,203.7z M577.2,213.6h-13.9v-19h13.9c5.1,0,9.6,4.2,9.6,9.3C586.8,209.3,582.3,213.6,577.2,213.6z"
			/>
		<path class="st0" d="M635.6,187c-0.2-0.5-0.9-0.9-1.3-0.9h-0.8c-0.4,0-1.1,0.4-1.3,0.9l-24,52.7c-0.5,1,0.2,2,1.3,2h4.9
			c0.9,0,1.6-0.6,1.8-1.2c1.6-3.6,3.2-7.1,4.8-10.7h25.6l4.9,10.7c0.3,0.7,0.9,1.2,1.8,1.2h4.9c1.2,0,1.8-1,1.3-2L635.6,187z
			 M624,223.1l9.5-21.4h0.4l9.6,21.4H624z"/>
		<path class="st0" d="M706.8,234.5h-23.4v-46c0-0.8-0.7-1.5-1.5-1.5h-5.2c-0.9,0-1.5,0.7-1.5,1.5v51.8c0,0.8,0.6,1.5,1.5,1.5h30
			c0.9,0,1.5-0.7,1.5-1.5V236C708.3,235.2,707.7,234.5,706.8,234.5z"/>
		<path class="st0" d="M730.6,187h-5.2c-0.8,0-1.5,0.7-1.5,1.5v51.8c0,0.8,0.7,1.5,1.5,1.5h5.2c0.8,0,1.5-0.7,1.5-1.5v-51.8
			C732.1,187.7,731.4,187,730.6,187z"/>
		<path class="st0" d="M799.2,239.7l-23.9-52.7c-0.2-0.5-0.9-0.9-1.3-0.9h-0.8c-0.4,0-1.1,0.4-1.3,0.9l-24,52.7c-0.5,1,0.2,2,1.3,2
			h4.9c0.9,0,1.6-0.6,1.8-1.2c1.6-3.6,3.2-7.1,4.8-10.7h25.6l4.9,10.7c0.3,0.7,0.9,1.2,1.8,1.2h4.9
			C799,241.8,799.7,240.8,799.2,239.7z M763.7,223.1l9.5-21.4h0.4l9.6,21.4H763.7z"/>
	</g>
</g>
</svg>
