<?xml version="1.0" encoding="utf-8"?>
<!-- Generator: Adobe Illustrator 22.0.1, SVG Export Plug-In . SVG Version: 6.00 Build 0)  -->
<svg version="1.1" id="Layer_1" xmlns="http://www.w3.org/2000/svg" xmlns:xlink="http://www.w3.org/1999/xlink" x="0px" y="0px"
	 viewBox="0 0 1045 353.8" style="enable-background:new 0 0 1045 353.8;" xml:space="preserve">
<style type="text/css">
	.st0{fill:#FFFFFF;}
</style>
<title>partner</title>
<g>
	<g>
		<g>
			<path class="st0" d="M484.6,202.1c-18.4,0-32.4-3.9-44.4-16l15.4-15.4c7.7,7.7,18.1,10.2,29.2,10.2c14.2,0,21.7-5.5,21.7-15.2
				c0-4.1-1.2-7.5-3.8-10.1c-2.4-2.2-4.8-3.2-10.9-4.1l-14.5-2.2c-10.8-1.5-18.1-4.8-23.6-10.1c-5.8-5.6-8.7-13.7-8.7-23.9
				c0-21.7,16-36.9,42.3-36.9c16.8,0,28.9,4.1,39.3,14.1l-15,14.9c-7.5-7.4-16.9-8.4-24.9-8.4c-12.6,0-18.6,7-18.6,15.4
				c0,3.2,0.9,6.3,3.4,8.7c2.4,2.2,6,3.9,11.1,4.6l14.5,2.2c11.1,1.5,17.9,4.4,23.2,9.5c6.5,6,9.4,14.7,9.4,25.6
				C529.8,188.8,510.3,202.1,484.6,202.1z"/>
			<path class="st0" d="M594.1,151.2v49.8h-23.6v-49.8L534,79.5h25.8l22.7,49l22.4-49h25.8L594.1,151.2z"/>
			<path class="st0" d="M722.8,183.3c-8.7,12.2-20.1,17.8-36.7,17.8h-43.9V79.5h43.9c16.6,0,28,5.6,36.7,17.8
				c7.5,10.4,7.7,22.9,7.7,43C730.5,160.4,730.3,172.9,722.8,183.3z M701.8,108.2c-3.9-5-9.7-7.5-17.8-7.5H666v79.2h18.1
				c8,0,13.8-2.5,17.8-7.5c4.4-5.3,5-13,5-32.1C706.8,121.2,706.3,113.5,701.8,108.2z"/>
			<path class="st0" d="M820.9,201.1l-48.2-74.6v74.6h-23.8V79.5h21.2l48.1,74.4V79.5H842v121.6H820.9z"/>
			<path class="st0" d="M1008.4,151.2v49.8h-23.6v-49.8l-36.5-71.7h25.8l22.7,49l22.4-49h25.8L1008.4,151.2z"/>
			<g>
				<polygon class="st0" points="861.8,79.5 861.8,201.1 941.9,201.1 941.9,179.9 885.5,179.9 885.5,150.4 933.5,150.4 933.5,129.2 
					885.5,129.2 885.5,100.7 941.9,100.7 941.9,100.5 931.2,79.5 				"/>
			</g>
		</g>
		<path class="st0" d="M907.3,274.8L883.6,238v36.8h-11.7v-60h10.5l23.8,36.8v-36.8h11.7v60H907.3z"/>
		<path class="st0" d="M946.7,275.3c-9.1,0-16-1.9-21.9-7.9l7.6-7.6c3.8,3.8,8.9,5.1,14.4,5.1c7,0,10.7-2.7,10.7-7.5
			c0-2-0.6-3.7-1.8-5c-1.2-1.1-2.4-1.6-5.4-2l-7.2-1.1c-5.3-0.8-8.9-2.4-11.6-5c-2.9-2.8-4.3-6.7-4.3-11.8
			c0-10.7,7.9-18.2,20.9-18.2c8.3,0,14.2,2,19.4,7l-7.4,7.3c-3.7-3.6-8.4-4.1-12.3-4.1c-6.2,0-9.2,3.5-9.2,7.6
			c0,1.6,0.4,3.1,1.7,4.3c1.2,1.1,2.9,1.9,5.5,2.3l7.2,1.1c5.5,0.8,8.9,2.2,11.5,4.7c3.2,2.9,4.6,7.3,4.6,12.7
			C969,268.7,959.4,275.3,946.7,275.3z"/>
		<path class="st0" d="M1028.8,274.8h-9.8l-11.1-36.4l-11,36.4h-9.8l-16-60h12.2l9.3,37.9l11-37.9h8.8l11,37.9l9.4-37.9h12.2
			L1028.8,274.8z"/>
		<path class="st0" d="M482.8,266c-4.3,6-10,8.8-18.2,8.8h-21.7v-60.2h21.7c8.2,0,13.9,2.8,18.2,8.8c3.7,5.2,3.8,11.3,3.8,21.3
			S486.5,260.9,482.8,266z M472.4,228.8c-2-2.4-4.8-3.7-8.8-3.7h-9v39.2h9c4,0,6.8-1.3,8.8-3.7c2.2-2.6,2.4-6.4,2.4-15.9
			C474.8,235.2,474.6,231.4,472.4,228.8z"/>
		<path class="st0" d="M503.3,256.2c0,5.8,3.4,9.8,9.6,9.8c4.8,0,7.2-1.4,10-4.1l6.7,6.5c-4.5,4.6-8.8,6.9-16.8,6.9
			c-10.4,0-20.4-4.7-20.4-22.6c0-14.4,7.8-22.5,19.2-22.5c12.3,0,19.2,8.8,19.2,21.3v4.6H503.3z M519,243.9
			c-1.2-2.6-3.6-4.6-7.3-4.6c-3.7,0-6.2,1.9-7.4,4.6c-0.8,1.6-0.9,2.8-1,4.7H520C519.9,246.7,519.7,245.6,519,243.9z"/>
		<path class="st0" d="M553.1,275.3c-6.9,0-13.1-0.7-18.8-6.3l7.2-7.2c3.5,3.6,8.4,4.1,11.8,4.1c3.8,0,7.8-1.3,7.8-4.6
			c0-2.2-1.1-3.7-4.7-4.1l-7.1-0.7c-7.8-0.8-12.7-4.2-12.7-12.4c0-9.2,8-14,17-14c6.9,0,12.6,1.3,16.8,5.1l-6.8,6.9
			c-2.5-2.3-6.4-3-10.2-3c-4.4,0-6.3,2-6.3,4.2c0,2.2,1.3,3.5,4.6,3.8l6.9,0.7c8.7,0.8,13.1,5.4,13.1,12.9
			C571.8,270.7,563.5,275.3,553.1,275.3z"/>
		<path class="st0" d="M592.4,274.8c-9,0-12.8-6.3-12.8-12.6v-21.8H575V232h4.7v-13h11v13h7.8v8.4h-7.8v21.2c0,2.5,1.2,4,3.8,4h4
			v9.3H592.4z"/>
		<path class="st0" d="M605.9,223.2v-9h11.2v9H605.9z M606,274.8V232h11v42.8H606z"/>
		<path class="st0" d="M651.1,274.8v-26.6c0-6-3.8-8-7.3-8c-3.5,0-7.4,2-7.4,8v26.6h-11v-44.1h10.7v4.1c2.9-3,6.9-4.6,11-4.6
			c4.4,0,8,1.4,10.4,3.9c3.6,3.6,4.5,7.7,4.5,12.5v28.2H651.1z"/>
		<path class="st0" d="M694.1,274.8V271c-3,3-5.7,4.2-10.8,4.2c-5,0-8.7-1.4-11.3-3.9c-2.4-2.5-3.6-6-3.6-9.9
			c0-7,4.8-12.8,15.2-12.8h10.2v-2.2c0-4.8-2.4-6.9-8.2-6.9c-4,0-6.1,1.1-8.5,3.8l-6.9-6.8c4.3-4.7,8.5-6.3,15.8-6.3
			c12.4,0,18.8,5.2,18.8,15.6v29H694.1z M693.9,256.2h-8.4c-4.4,0-6.5,1.8-6.5,5.1c0,3,2.1,5,6.7,5c2.7,0,4.7-0.3,6.5-2.1
			c1.3-1.1,1.7-2.8,1.7-5.6V256.2z"/>
		<path class="st0" d="M728.1,274.8c-9,0-12.8-6.3-12.8-12.6v-21.8h-4.6V232h4.6v-13h11v13h7.8v8.4h-7.8v21.2c0,2.5,1.2,4,3.8,4h4
			v9.3H728.1z"/>
		<path class="st0" d="M741.6,223.2v-9h11.2v9H741.6z M741.8,274.8V232h11v42.8H741.8z"/>
		<path class="st0" d="M792,269.6c-2.8,2.9-7.2,5.4-13.7,5.4c-6.5,0-10.8-2.5-13.6-5.4c-4-4.2-5-9.2-5-17.2c0-7.9,1-12.8,5-17.1
			c2.8-2.9,7.1-5.4,13.6-5.4c6.5,0,10.9,2.5,13.7,5.4c4,4.2,5,9.1,5,17.1C797,260.4,796.1,265.4,792,269.6z M783.5,241.7
			c-1.3-1.3-3-2-5.2-2c-2.1,0-3.8,0.7-5.1,2c-2.3,2.2-2.5,6.2-2.5,10.6c0,4.6,0.3,8.6,2.5,10.8c1.3,1.3,3,1.9,5.1,1.9
			c2.2,0,3.9-0.7,5.2-1.9c2.3-2.2,2.5-6.2,2.5-10.8C786,247.9,785.7,243.9,783.5,241.7z"/>
		<path class="st0" d="M829.2,274.5v-26.6c0-6-3.8-8-7.3-8c-3.5,0-7.4,2-7.4,8v26.6h-11v-44.1h10.7v4.1c2.9-3,6.9-4.6,11-4.6
			c4.4,0,7.9,1.4,10.4,3.9c3.5,3.6,4.5,7.7,4.5,12.5v28.2H829.2z"/>
	</g>
	<g>
		<g>
			<g>
				<path class="st0" d="M107.9,191.1c11.3-62.5,43.4-135.2,87.8-173.8H19.7C64,48.9,101.6,113.1,107.9,191.1z"/>
				<path class="st0" d="M298.2,70.5c0,0,18.3,26.9,31.9,54.4c17.5,35.2,25,62.8,25,62.8S412.2,52.9,452.4,0
					C341,32.5,298.2,70.5,298.2,70.5z"/>
			</g>
			<g>
				<path class="st0" d="M274.4,91.4c-62.8,57.5-107.7,118-135.1,169.3c52.4,24.8,94.6,52,121.3,70.9
					C258.3,310.9,243.3,183.5,274.4,91.4z"/>
				<g>
					<path class="st0" d="M0,17.3v195c34.9,7.5,68.1,18.3,98.8,30.6C102.3,145.9,70.2,60.8,0,17.3z"/>
				</g>
			</g>
			<g>
				<path class="st0" d="M118.6,192.8c17.2-37.2,69.8-114.9,130.8-154.5c-10.7-8.3-22.5-15.5-35.4-20.9
					C140.4,69.7,118.6,192.8,118.6,192.8z"/>
				<path class="st0" d="M108.9,247.1c1.1,0.5,14.9,6.4,20.5,9c9.9-21,59.1-105.4,152.5-185.6c-3.9-4.7-13.9-16.6-23.8-25
					C144.1,123.7,108.9,247.1,108.9,247.1z"/>
			</g>
			<g>
				<path class="st0" d="M285.6,58.4L285.6,58.4C285.6,58.3,285.5,58.3,285.6,58.4z"/>
				<path class="st0" d="M285.6,58.4L285.6,58.4C285.8,58.5,285.7,58.5,285.6,58.4z"/>
				<path class="st0" d="M267,39.5c2.4,2.3,13.2,12.7,18.6,18.9c-0.1-0.1-0.1-0.1,0,0c6.2-15.9,12.7-27.8,19.5-38
					C296.3,23.7,283,29.6,267,39.5z"/>
			</g>
		</g>
		<path class="st0" d="M289,77.6c0,0-38.5,102.3-16.4,261.2c8.7,6.5,19.4,15.1,19.4,15.1s34-98.3,55.9-148.5
			C341.8,180.5,328.4,136.7,289,77.6z"/>
	</g>
</g>
</svg>
